<svg xmlns="http://www.w3.org/2000/svg" viewBox="0 0 64 64" fill="none" aria-hidden="true">
  <g fill="currentColor">
    <path d="M30.4 22.2 C 29.6 33, 28.4 44, 24.2 55.4 C 23.8 56.7, 26.4 57.4, 26.9 56.1 C 31 44.8, 33 33, 33.6 22.4 Z"/>
    <circle cx="32" cy="21.5" r="2.1"/>
    <circle cx="29.2" cy="22.8" r="1.5"/>
    <circle cx="34.8" cy="22.8" r="1.5"/>
    <g transform="translate(32 22)">
      <path d="M0.0 0.0 L-1.6 -0.3 L-3.2 -0.2 L-4.7 0.2 L-6.2 0.8 L-7.6 1.5 L-9.0 2.4 L-10.4 3.4 L-11.7 4.5 L-13.0 5.7 L-14.2 7.1 L-15.4 8.6 L-16.5 10.2 L-17.5 11.8 L-18.5 13.6 L-19.5 15.5 L-20.3 17.5 L-21.1 19.6 L-21.7 21.8 L-21.6 21.9 L-19.9 20.2 L-18.5 18.6 L-17.1 17.0 L-15.8 15.5 L-14.5 14.0 L-13.3 12.7 L-12.1 11.4 L-10.9 10.2 L-9.7 9.0 L-8.6 7.9 L-7.4 6.9 L-6.3 5.9 L-5.3 4.9 L-4.2 4.0 L-3.1 3.1 L-2.1 2.2 L-1.0 1.3 L0.0 0.0 Z"/>
      <path d="M0.0 0.0 L-1.3 -1.1 L-2.8 -1.6 L-4.2 -2.0 L-5.7 -2.2 L-7.2 -2.2 L-8.7 -2.1 L-10.2 -1.9 L-11.7 -1.5 L-13.1 -1.0 L-14.5 -0.3 L-15.9 0.4 L-17.2 1.3 L-18.4 2.3 L-19.6 3.4 L-20.7 4.6 L-21.7 5.8 L-22.7 7.3 L-23.4 8.9 L-23.3 9.0 L-21.7 8.3 L-20.2 7.5 L-18.9 6.8 L-17.6 6.1 L-16.3 5.5 L-15.0 5.0 L-13.8 4.5 L-12.6 4.0 L-11.4 3.5 L-10.2 3.1 L-9.0 2.8 L-7.9 2.4 L-6.7 2.1 L-5.4 1.7 L-4.2 1.4 L-2.9 1.1 L-1.5 0.7 L0.0 0.0 Z"/>
      <path d="M0.0 0.0 L-0.7 -1.6 L-1.6 -2.8 L-2.7 -3.9 L-3.8 -4.8 L-5.0 -5.6 L-6.1 -6.3 L-7.4 -6.9 L-8.6 -7.3 L-9.8 -7.6 L-11.1 -7.8 L-12.3 -7.9 L-13.6 -7.9 L-14.8 -7.7 L-15.9 -7.4 L-17.1 -7.0 L-18.1 -6.5 L-19.1 -5.9 L-19.9 -4.9 L-19.9 -4.8 L-18.7 -4.4 L-17.6 -4.2 L-16.6 -4.0 L-15.7 -3.9 L-14.7 -3.7 L-13.8 -3.5 L-12.9 -3.2 L-12.0 -3.0 L-11.0 -2.7 L-10.1 -2.4 L-9.0 -2.1 L-8.0 -1.8 L-6.9 -1.5 L-5.7 -1.2 L-4.5 -0.8 L-3.2 -0.4 L-1.7 -0.1 L0.0 0.0 Z"/>
      <path d="M0.0 0.0 L0.2 -1.8 L-0.1 -3.4 L-0.4 -4.8 L-0.9 -6.2 L-1.4 -7.5 L-2.0 -8.7 L-2.6 -9.8 L-3.2 -10.8 L-3.9 -11.8 L-4.6 -12.6 L-5.4 -13.4 L-6.2 -14.1 L-7.0 -14.7 L-7.8 -15.2 L-8.7 -15.6 L-9.6 -15.9 L-10.4 -16.1 L-11.5 -15.9 L-11.5 -15.8 L-11.4 -14.8 L-11.1 -14.0 L-10.8 -13.3 L-10.5 -12.6 L-10.1 -11.8 L-9.7 -11.1 L-9.2 -10.3 L-8.7 -9.5 L-8.2 -8.6 L-7.6 -7.8 L-6.9 -6.9 L-6.2 -6.0 L-5.4 -5.0 L-4.6 -4.0 L-3.7 -3.0 L-2.7 -2.0 L-1.6 -0.9 L0.0 0.0 Z"/>
      <path d="M0.0 0.0 L1.6 -0.9 L2.7 -2.0 L3.7 -3.0 L4.6 -4.0 L5.4 -5.0 L6.2 -6.0 L6.9 -6.9 L7.6 -7.8 L8.2 -8.6 L8.7 -9.5 L9.2 -10.3 L9.7 -11.1 L10.1 -11.8 L10.5 -12.6 L10.8 -13.3 L11.1 -14.0 L11.4 -14.8 L11.5 -15.8 L11.5 -15.9 L10.4 -16.1 L9.6 -15.9 L8.7 -15.6 L7.8 -15.2 L7.0 -14.7 L6.2 -14.1 L5.4 -13.4 L4.6 -12.6 L3.9 -11.8 L3.2 -10.8 L2.6 -9.8 L2.0 -8.7 L1.4 -7.5 L0.9 -6.2 L0.4 -4.8 L0.1 -3.4 L-0.2 -1.8 L0.0 0.0 Z"/>
      <path d="M0.0 0.0 L1.7 -0.1 L3.2 -0.4 L4.5 -0.8 L5.7 -1.2 L6.9 -1.5 L8.0 -1.8 L9.0 -2.1 L10.1 -2.4 L11.0 -2.7 L12.0 -3.0 L12.9 -3.2 L13.8 -3.5 L14.7 -3.7 L15.7 -3.9 L16.6 -4.0 L17.6 -4.2 L18.7 -4.4 L19.9 -4.8 L19.9 -4.9 L19.1 -5.9 L18.1 -6.5 L17.1 -7.0 L15.9 -7.4 L14.8 -7.7 L13.6 -7.9 L12.3 -7.9 L11.1 -7.8 L9.8 -7.6 L8.6 -7.3 L7.4 -6.9 L6.1 -6.3 L5.0 -5.6 L3.8 -4.8 L2.7 -3.9 L1.6 -2.8 L0.7 -1.6 L0.0 0.0 Z"/>
      <path d="M0.0 0.0 L1.5 0.7 L2.9 1.1 L4.2 1.4 L5.4 1.7 L6.7 2.1 L7.9 2.4 L9.0 2.8 L10.2 3.1 L11.4 3.5 L12.6 4.0 L13.8 4.5 L15.0 5.0 L16.3 5.5 L17.6 6.1 L18.9 6.8 L20.2 7.5 L21.7 8.3 L23.3 9.0 L23.4 8.9 L22.7 7.3 L21.7 5.8 L20.7 4.6 L19.6 3.4 L18.4 2.3 L17.2 1.3 L15.9 0.4 L14.5 -0.3 L13.1 -1.0 L11.7 -1.5 L10.2 -1.9 L8.7 -2.1 L7.2 -2.2 L5.7 -2.2 L4.2 -2.0 L2.8 -1.6 L1.3 -1.1 L0.0 0.0 Z"/>
      <path d="M0.0 0.0 L1.0 1.3 L2.1 2.2 L3.1 3.1 L4.2 4.0 L5.3 4.9 L6.3 5.9 L7.4 6.9 L8.6 7.9 L9.7 9.0 L10.9 10.2 L12.1 11.4 L13.3 12.7 L14.5 14.0 L15.8 15.5 L17.1 17.0 L18.5 18.6 L19.9 20.2 L21.6 21.9 L21.7 21.8 L21.1 19.6 L20.3 17.5 L19.5 15.5 L18.5 13.6 L17.5 11.8 L16.5 10.2 L15.4 8.6 L14.2 7.1 L13.0 5.7 L11.7 4.5 L10.4 3.4 L9.0 2.4 L7.6 1.5 L6.2 0.8 L4.7 0.2 L3.2 -0.2 L1.6 -0.3 L0.0 0.0 Z"/>
    </g>
  </g>
</svg>
